<?xml version="1.0" encoding="UTF-8"?>
<!DOCTYPE svg PUBLIC "-//W3C//DTD SVG 1.1//EN" "http://www.w3.org/Graphics/SVG/1.1/DTD/svg11.dtd">
<!-- Creator: CorelDRAW 2020 (64 Bit) -->
<svg xmlns="http://www.w3.org/2000/svg" xml:space="preserve" width="113.851mm" height="65.5878mm" version="1.1" style="shape-rendering:geometricPrecision; text-rendering:geometricPrecision; image-rendering:optimizeQuality; fill-rule:evenodd; clip-rule:evenodd"
viewBox="0 0 9806.86 5649.57"
 xmlns:xlink="http://www.w3.org/1999/xlink"
 xmlns:xodm="http://www.corel.com/coreldraw/odm/2003">
 <defs>
  <style type="text/css">
   <![CDATA[
    .fil3 {fill:black}
    .fil6 {fill:#020202}
    .fil5 {fill:#030303}
    .fil2 {fill:#2B9C3D}
    .fil0 {fill:#309F41}
    .fil12 {fill:#626262}
    .fil17 {fill:#6E6E6E}
    .fil15 {fill:#7A7A7A}
    .fil16 {fill:#7D7D7D}
    .fil9 {fill:#858585}
    .fil14 {fill:#878787}
    .fil8 {fill:#8E8E8E}
    .fil13 {fill:#929292}
    .fil20 {fill:#999999}
    .fil10 {fill:#A0A0A0}
    .fil11 {fill:#A6A6A6}
    .fil18 {fill:#AEAEAE}
    .fil19 {fill:#BABABA}
    .fil1 {fill:#CC181E}
    .fil7 {fill:#FDFDFD}
    .fil4 {fill:#FEFEFE}
    .fil21 {fill:#373435;fill-rule:nonzero}
   ]]>
  </style>
    <clipPath id="id0">
     <rect x="4135.8" y="313.93" width="5671.05" height="5297.61"/>
    </clipPath>
 </defs>
 <g id="Camada_x0020_1">
  <metadata id="CorelCorpID_0Corel-Layer"/>
  <g id="_2206181010416">
   <path class="fil0" d="M2259.93 1555.57c1.21,91.54 38.87,74.32 158.97,74.36 368.13,0.16 313.29,52.47 313.29,-274 0,-230.87 66.37,-200.55 -329.9,-200.84 -57.33,-0.04 -132.18,-16.9 -141.66,42.9 -11.44,72.11 -0.9,272.36 -0.7,357.58z"/>
   <path class="fil0" d="M1701.47 1734.37c-12.35,58.88 -12.45,392.4 0.62,449.3 79.98,25.95 250.79,11.45 351.6,12.19 136.58,1.02 113.46,0.22 113.46,-241.01 0,-237.02 26.38,-234.77 -121.8,-233.83 -98.02,0.62 -267.53,-13.8 -343.89,13.35z"/>
   <path class="fil0" d="M1704.42 1038.15c19.79,28.29 17.83,24.64 91.67,24.02 93.38,-0.77 303.15,9.97 360.61,-10.37 24.07,-63.83 10.3,-249.48 10.42,-336.39 0.22,-149.51 16.62,-126.41 -221.39,-126.41 -260.29,0.01 -251.88,-21.19 -251.06,101.39 0.43,64.91 -14.31,309.55 9.75,347.75z"/>
   <path class="fil0" d="M2264.33 471.86c39.36,39.24 121.41,23.93 220.98,23.93 75.92,0 175.38,9.62 237.02,-9.15 18.85,-53.56 20.28,-408.59 -2.82,-454.74 -42.32,-12.47 -415.48,-19.42 -442.38,0.16 -30.32,22.06 -17.24,165.2 -17.24,209.22 0,63.41 -6.35,172.81 4.44,230.57z"/>
   <path class="fil0" d="M1694.76 1264.44l0.03 291.14c0.03,97.83 49.35,74.45 242.65,74.44 287.12,-0.01 230.24,44.09 229.77,-373.9 -0.11,-101.27 -0.22,-101.08 -105.26,-101.06 -377.64,0.07 -367.19,-28.92 -367.19,109.38z"/>
   <path class="fil0" d="M1136.7 1734.24c-12.93,55.62 -13.7,397.87 0.77,449.1 60.64,21.53 159.1,12.35 235.48,12.35 69.59,0 172.96,15.07 221.48,-18.61 12.48,-43.63 12.16,-391.26 0.06,-436.17 -48.67,-33.63 -156.89,-19.83 -229.84,-19.83 -73.44,0 -169.52,-10.64 -227.95,13.15z"/>
   <path class="fil0" d="M1139.75 1039.67c27.23,36.65 143.88,22.36 224.9,22.36l182.47 0.28c91.12,-6.56 52.71,-139.68 54.02,-355.21 0.44,-72.58 16.47,-115.31 -61.5,-118.52l-341.69 -0.22c-80.73,1.25 -68.91,37.79 -68.27,110.38 0.56,64.87 -13.79,303.85 10.09,340.92z"/>
   <path class="fil0" d="M1129.82 1264.44l-0.06 282.82c0.04,98.57 32.81,82.76 126.98,82.76l298.09 -0.96c78.72,-11.84 46.21,-122.1 46.22,-273.12 0.01,-239.41 60.39,-200.88 -352.61,-200.88 -111.02,0 -118.61,-4.58 -118.61,109.39z"/>
   <path class="fil0" d="M1694.82 108.2l-0.07 324.41c-0.02,85.15 64.32,63.18 201.17,63.18 81.99,0 194,10.09 261.54,-9.18 17.12,-54.53 18.67,-407.85 -2.68,-454.56 -122.79,-20.09 -277,-9.05 -399.98,-9.02 -57.46,0.04 -60,31.65 -59.98,85.16z"/>
   <path class="fil1" d="M1329.01 3.01c-343.78,46.48 -265.63,565.33 76.73,513.27 333.07,-50.64 267.9,-559.86 -76.73,-513.27z"/>
   <path class="fil2" d="M52.66 4389.52l-52.66 10.9c9.55,9.82 0.89,20.04 52.29,20.72 18.49,0.24 39.8,-0.95 58.89,-1.01l3711.6 1.03c41.88,-3.37 28.75,5.18 39.67,-23.24 -40.15,-22.03 -3112.35,-6.12 -3751.28,-7.74 -18.91,-0.05 -40.05,-1.07 -58.52,-0.67z"/>
   <path class="fil3" d="M443.61 2982.43l85.23 -0.78 -0.46 -260.22 0.93 -74.39c8.69,7.87 189.8,311.18 198.6,338.9l130.36 1.32 -4.07 -464.8 -81 -0.19 1.58 340.79c-25.92,-18.06 -81.6,-127.29 -105.73,-169.35 -32.29,-56.3 -66.44,-116.42 -100.5,-170.96l-125.85 0.29 0.9 459.38z"/>
   <path class="fil3" d="M3362.52 2607.73c191.04,-70.17 211.78,249.46 95.71,297.02 -195,79.9 -217.86,-252.16 -95.71,-297.02zm-176.15 203.9c19.98,135.99 116.46,206.68 276.17,181.87 129.72,-20.16 186.81,-142.65 166.55,-287.43 -19.67,-140.59 -121.5,-212.01 -279.54,-184.78 -126.59,21.82 -184.76,143.48 -163.18,290.34z"/>
   <path class="fil3" d="M1383.1 3475.39l-0.53 -303.37c120.25,-5.33 183.99,23.36 185.29,146.97 1.3,124.84 -62.48,161.9 -184.76,156.4zm-102.43 80.62c149.59,-0.59 393.79,32.31 391.65,-236.96 -1.9,-236.11 -175.39,-227.88 -391.44,-229.88l-0.21 466.83z"/>
   <path class="fil3" d="M2302.52 3290.91c-12.05,9.52 17.85,6.28 -24.77,11.84l-42.05 -2.56 1.29 -129.96c21.87,-2.41 70.63,-7.58 78.26,12.26 69.19,2.03 61.14,106.11 -12.73,108.41zm-168.47 263.24l101.56 -0.24 1.12 -176.15c11.52,-1.36 20.8,-3.93 33.02,-2.81 38.21,3.5 15.26,3.24 26.08,10.34 15.73,30.68 84.71,149.91 114.75,170.8l99.23 -1.02c-12.7,-31.58 -46.25,-71.16 -66.93,-101.94 -17.56,-26.15 -50.35,-73.25 -62.79,-99.15 113.36,-68.12 100.63,-172.23 43.76,-222.91 -64.04,-57.08 -188.45,-42.35 -286.85,-41.53l-2.96 464.61z"/>
   <path class="fil3" d="M2742.64 3177.64c18.24,24.39 51.98,142.3 61.83,183.36l-118.33 -1.28 56.5 -182.08zm117.77 370.42c31.46,6.43 82.17,10.37 105.37,-2.44 -16.51,-69.69 -53.28,-159.72 -79.03,-229.35 -28.88,-78.08 -52.97,-151.12 -80.94,-227.3l-120.95 -0.27 -165.8 466.74c111.33,0.59 104.92,12.96 123.45,-54.11 5.34,-19.36 10.8,-39.26 18.09,-55.02l169.27 2.05 30.54 99.7z"/>
   <path class="fil3" d="M2701.59 2864.93l0.59 -340.26 -90.2 -1.05c-0.22,57.17 -0.12,114.36 -0.12,171.55 0,33.4 13.57,133.36 -13.37,147.19 -1.32,94.47 -165.12,107.59 -177.72,-6.69 -10.52,-95.37 9.65,-217.26 -3.56,-312.72l-96.34 0.14c-9.16,67.76 -2.62,174.74 -2.86,246.96 -0.3,89.55 3.7,150.79 59.52,191.24 105.62,76.54 305.13,36.55 324.07,-96.35z"/>
   <polygon class="fil3" points="1769.17,3552.26 2036.98,3552.1 2037.17,3476.09 1869.38,3475.55 1873.06,3355.34 2029.69,3355.14 2030.1,3274.16 1870.71,3273.75 1871.76,3171.4 2034.94,3170.46 2035.02,3093.69 1769.09,3093.62 "/>
   <path class="fil3" d="M1215.23 2625.05c19.8,-17.31 29.01,-45.75 33.56,-78.21 -65.51,-19.39 -123.64,-45.39 -202.82,-21.49 -57.76,17.43 -94.42,56.7 -92.94,127.63 3.44,164.27 216.31,116.56 199.17,236.9 -55.89,56.84 -144.28,9.63 -204.55,-11.71l0.09 94.81c52.01,19.29 76.24,23.33 134.68,23.38 196.73,0.14 186.72,-156.3 152.98,-205.05 -27.72,-40.05 -69.54,-57.19 -112.66,-78.53 -56.56,-27.99 -80.62,-37.29 -59.78,-102.87 60.8,-14.06 96.95,-6.55 152.27,15.13z"/>
   <path class="fil3" d="M1180.75 3477.05l-160.07 -1.34c-14.03,-11.4 -8.68,-0.65 -12.77,-23.27l3.15 -100.49 156.43 -1.23 0.23 -71.6 -156.31 -5.29c-6.9,-44.06 -14.03,-93.11 12.55,-102.03l156.64 -1.46 -0.23 -78.34 -263.31 0.11 0.24 10.65 -0.36 449.68 263.23 0.21 0.56 -75.6z"/>
   <path class="fil3" d="M650.84 3377.87c12.09,-9.6 -18.61,-8.96 24.81,-8.54l132.38 0.07 0.18 -77.01 -156.79 0.21 -2.27 -119.22c29.44,-14.49 128.71,-7.13 166.87,-6.79l0.08 -74.75 -267.72 0.17 2.15 463.88 100.21 0.25 0.1 -178.27z"/>
   <polygon class="fil3" points="1297.6,2604.4 1427.51,2604.57 1430.27,2986.98 1520.82,2986.87 1520.87,2978 1521.37,2605.74 1654.46,2599.69 1652.4,2523.17 1298.57,2520.94 "/>
   <polygon class="fil3" points="2777.62,2599.12 2906.42,2604.94 2909.74,2986.94 3000.8,2987.01 3000.78,2607.09 3134.41,2603.62 3131.88,2522.82 2778.97,2524.09 "/>
   <path class="fil4" d="M3362.52 2607.73c-122.15,44.86 -99.29,376.92 95.71,297.02 116.07,-47.56 95.34,-367.19 -95.71,-297.02z"/>
   <path class="fil3" d="M1896.39 2601.43c41.37,-0.89 90.12,-6.88 128.55,6.05l2.55 377.14 93.59 0.27 -1.68 -372.47c14.08,-14.14 -26.32,-10.07 25.55,-13.52l99.81 -0.01 -0.28 -72.92c-69.75,2.06 -295.05,15.38 -340.99,-5.65 -12.82,22.83 -8.45,49.57 -7.1,81.11z"/>
   <path class="fil3" d="M3024.24 3552.76l288.92 -0.03 -0.28 -74.74 -177.87 -1.16c-12.96,-12.37 -4.67,4.45 -10.52,-16.92l-0.78 -368.57 -100.94 0.65 1.46 460.77z"/>
   <path class="fil4" d="M1383.1 3475.39c122.28,5.5 186.07,-31.56 184.76,-156.4 -1.3,-123.61 -65.04,-152.3 -185.29,-146.97l0.53 303.37z"/>
   <polygon class="fil3" points="226.58,2989.75 293.8,2989.77 328.53,2989.99 328.36,2953.04 328.74,2570.39 326.19,2522.63 228.04,2522.92 226.64,2587.04 "/>
   <polygon class="fil3" points="1728.97,2985.25 1820.67,2985.25 1820.9,2525.15 1729.55,2524.7 "/>
   <path class="fil5" d="M1663.63 4714.82c-12.07,12.96 15.33,16.86 -14.61,9.62l-2.84 -21.6c-11.7,-11.04 23.04,-15.58 -31.22,-9.48 -0.2,59.06 -15.47,224.35 7.03,264.1l24.89 -1.31c27.79,-68.57 -40.31,-232.76 75.63,-236.59 105.31,-3.49 40.98,163.91 65.46,236.98l35.08 1.3c-0.84,-127.96 -32.28,-272.38 117.1,-228.04 13.77,46.53 13.24,63.71 12.91,119.77 -0.12,20.85 -1.91,48.18 -1.28,67.82 1.63,50.13 -7.49,36.7 27.15,40.48 21.65,-12.93 14.2,-11.55 14.26,-49.18 0.07,-43.81 3.1,-147.61 -10.67,-178.36 -29.36,-65.46 -123.17,-51.4 -167.09,-0.37 -38.56,-53.13 -105.4,-58.38 -151.8,-15.14z"/>
   <path class="fil3" d="M1418.75 4120.42l-3.01 -168.34 -92.64 -0.14c-21.76,5.91 -8.42,-3.38 -16.35,15.92l32.84 6.21c28.9,1.65 23.3,-3.68 42.88,9.01l-2.87 107.87c-135.05,15.86 -226.72,-7.72 -210.35,-163.55 9.77,-92.99 89.32,-134.51 166.54,-120.45 4.98,0.91 37.54,9.97 39.65,10.16 51.73,4.52 13.55,7.24 32.21,-7.29 -2.09,-32.5 8.65,-22.34 -34.9,-33.52 -265.77,-68.2 -313.29,263.74 -163.85,339.29 70.75,35.76 138.48,11.86 209.87,4.83z"/>
   <path class="fil3" d="M2166.75 4726.56c112.4,-47.34 139.17,164.03 58.44,196.3 -102.81,41.08 -122.52,-82.72 -104.82,-148.46 10.33,-38.37 16.31,-35.17 46.39,-47.84zm-37.25 -13.32l-13.14 14.37 -6.56 -18.91c-7.61,-21.31 14.85,-11.58 -22.95,-17.56 -19.1,26.71 -9.35,259.5 -9.89,299.94 -1.52,112.67 -4.01,75.49 18.19,85 18.25,-7.41 21.58,2.84 20.04,-68.19 -0.57,-26.64 -0.86,-53.1 0.26,-79.69 26.75,8.45 19.1,21.94 54.91,30.17 81.27,18.7 136.87,-31.24 140.09,-125.87 3.95,-116.48 -77.91,-190.22 -180.95,-119.26z"/>
   <path class="fil6" d="M1571.19 5295.71c115.02,-36.42 136.97,169.85 55.56,199.78 -127.14,46.76 -142.3,-172.32 -55.56,-199.78zm-56.94 353.86l-0.08 -153.41c39.55,-1.31 3.58,-2.28 19.39,10.72 23.23,30.89 92.06,36.94 131.68,10.05 29.97,-20.35 48.37,-64.72 48.48,-118.36 0.28,-127.66 -73.71,-168.15 -182.45,-111.88 -13.06,13.7 12.33,11.57 -15.59,11.48l-2.57 -20.36c-13.71,-16.05 23.3,-14.5 -23.95,-13.2 -6.37,11.12 -1.44,-6.77 -6.33,19l-1.52 364.35 32.95 1.6z"/>
   <path class="fil7" d="M1579.19 3898.02c-89.26,28.75 -71.07,237.53 56.18,200.2 87.48,-25.67 73.6,-242 -56.18,-200.2z"/>
   <path class="fil7" d="M2537.63 4026.1c15.77,114.55 181.3,107.34 159.12,-56.08 -15.76,-116.17 -181.9,-109.28 -159.12,56.08z"/>
   <path class="fil7" d="M1866.53 5299.68c-26.7,11.72 -37.92,14.43 -48.14,45.3 -23.43,70.7 5.97,189.86 106.84,150 80.68,-31.88 58.42,-246.68 -58.7,-195.3z"/>
   <path class="fil6" d="M1418.38 4832.15c26.97,-12.01 46.79,-10.17 76.67,-5.08 3.56,31.78 7.86,26.13 -7.67,45.14 -6.99,59.32 -66.21,64.47 -116.87,46.75 -14.92,-50.7 -6.6,-78.8 47.88,-86.8zm45.87 -143.06c-34.19,-5.07 -160.74,15.13 -98.89,44.39 0.24,0.11 74.76,-15.86 119.6,-4.15l10.87 68.76c-81.64,4.04 -179.52,1.14 -174.63,93.18 4.28,80.79 129.86,96.16 164.89,31.59 27.57,21.61 3.58,30.6 47.75,35.17 0.08,-137.27 25.51,-254.82 -69.59,-268.94z"/>
   <path class="fil6" d="M1579.19 3898.02c129.77,-41.8 143.66,174.53 56.18,200.2 -127.25,37.33 -145.44,-171.45 -56.18,-200.2zm143.53 153.03c65.11,-193.73 -180.35,-260.11 -229.54,-112.31 -25.17,75.63 2.91,162.35 64,186.06 81.9,31.78 144.06,-9.85 165.54,-73.74z"/>
   <path class="fil7" d="M2166.75 4726.56c-30.08,12.67 -36.06,9.48 -46.39,47.84 -17.7,65.74 2.02,189.54 104.82,148.46 80.74,-32.27 53.97,-243.64 -58.44,-196.3z"/>
   <path class="fil6" d="M1951.79 4023c38.06,-20.86 70.77,-22.65 126.66,-26.21 -0.26,53.33 -7.78,94.74 -59.31,103.72 -68.7,11.96 -75.79,-23.36 -67.34,-77.51zm117.25 80.64l12.38 -11.46 6.06 15.56c8.25,29.78 -20.35,16.59 24.27,19.86 22.61,-44.21 -0.07,31.47 6.99,-26.89l0.32 -91.31c0.02,-30.24 1.58,-80.73 -8.22,-106.22 -21.06,-54.73 -126.83,-57.05 -172.37,-18.49 13.62,39.73 -3.14,27.06 31.86,18.64 16.78,-4.04 132.65,-44.23 103.74,68.27 -85.72,3.29 -174.62,-1.16 -166.26,96.15 3.88,45.27 28.29,62.49 72.16,66.44 46.24,4.17 62.34,-15.18 89.07,-30.54z"/>
   <path class="fil4" d="M1571.19 5295.71c-86.74,27.46 -71.58,246.54 55.56,199.78 81.41,-29.93 59.46,-236.2 -55.56,-199.78z"/>
   <path class="fil6" d="M2317.33 5492.08c-28.68,-86.71 46.41,-101.63 122.02,-89.98 3.59,86.46 -38.69,114.01 -122.02,89.98zm75.58 -199.56c44.22,3.99 50.18,29.95 48.21,78.29 -83.34,5.7 -180.29,-1.13 -173.83,94.4 5.7,84.43 121.27,85.51 168.21,33.14 13.91,13.53 12.02,21.26 33.21,29.57l6.49 -14.17c17.34,-55.36 -5.12,36.91 4.14,-15.19 7.05,-39.68 1.61,-181.71 -13.17,-205.37 -26.51,-42.44 -133.01,-44.14 -167.91,-5.44 24.06,45.33 35.53,-0.59 94.65,4.76z"/>
   <path class="fil3" d="M1265.45 4914.4c-135.11,23 -222.48,-0.67 -209.59,-156.69 4.64,-56.27 33.64,-99.98 75.94,-115.88 100.77,-37.89 112.32,49 142.97,-16.81 -20.22,-24 -60.12,-26.87 -92.8,-26.75 -35.94,0.11 -66.63,7.48 -94.03,23.81 -104.98,62.53 -131.89,345.14 102.68,339.17 93.75,-2.39 73.84,-21.86 74.84,-46.84z"/>
   <path class="fil6" d="M2537.63 4026.1c-22.77,-165.37 143.36,-172.25 159.12,-56.08 22.18,163.42 -143.35,170.64 -159.12,56.08zm-41.79 -8.32c13.78,159.91 257.37,169.61 240.84,-41.94 -12.86,-164.44 -258.68,-165.02 -240.84,41.94z"/>
   <path class="fil6" d="M1866.53 5299.68c117.12,-51.38 139.38,163.42 58.7,195.3 -100.88,39.86 -130.27,-79.3 -106.84,-150 10.22,-30.87 21.44,-33.58 48.14,-45.3zm-93.24 123.89c19.79,166.68 269.12,147.52 238.14,-56.69 -23.77,-156.56 -262.49,-148.53 -238.14,56.69z"/>
   <path class="fil6" d="M2560.01 4927.81c20.59,43.31 -6.78,18.1 24.9,30 23.66,-12.64 15.77,-19.29 15.25,-57.64 -0.73,-53.96 6.56,-180.93 -6.95,-208.38l-24.91 0.48c-19.7,43.39 0.37,120.07 -9.48,173.27 -9.85,53.19 -58.08,82.58 -116.07,53.16 -32.65,-26.04 -23.08,-58.39 -22.79,-110.65 0.17,-31.06 8.54,-91.07 -9.37,-116.97l-24.9 -0.05 -8.88 58.32c0.13,49.54 -4.35,136.29 13.22,170.43 36.87,71.7 128.01,38.45 169.98,8.04z"/>
   <path class="fil6" d="M2236.27 4128.42c13.62,-28.08 3.56,-109.2 9.13,-160.41 5.62,-51.66 29.11,-76.18 82.1,-74.58 64.23,1.95 60.69,48.93 60.3,107.61 -0.96,143.65 -14.33,124.24 31.1,127.57 1.13,-2.04 2.08,-4.85 2.57,-6.52l5.44 -21.22c1,-7.18 0.9,-24.94 0.88,-32.85 -0.15,-50.45 5.13,-136.51 -13.39,-169.97 -31.93,-57.68 -120.88,-48.42 -165.44,-0.65 -21.64,-30.68 1.42,-32.83 -40.41,-31.78 -8,43.28 -3.07,98.53 -3.1,143.84 -0.1,130.55 -14.28,115.61 30.82,118.96z"/>
   <path class="fil5" d="M2706.79 4749.79c57.01,-82.18 118.95,25.62 140.4,-41.59 -50.22,-40.54 -202.13,-29.42 -173.79,69.42 19.39,67.62 180.56,55.44 136.33,130.51 -26.94,39.61 -101.59,14.46 -138.95,3.71l5.44 35.66c70.23,31.74 190.38,16.87 180.25,-70.68 -9.75,-84.28 -131.78,-51.21 -149.69,-127.04z"/>
   <path class="fil6" d="M2103.44 5527.81c21.65,-10.67 20.29,28.79 18.21,-79.31 -1.01,-52.72 -6.25,-111.05 41.54,-139.72 36.01,-21.6 43.88,-2.78 69.77,-19.67l1.03 -23.61c-48.86,-18.53 -90.31,11.5 -103.91,41.49l-6.92 -12c-15.7,-28.21 3.8,-21.51 -28.02,-30.88 -7.95,10.28 -11.16,-11.97 -11.15,34.66l0.02 116.46c-0.03,132.29 -9.85,99.08 19.43,112.56z"/>
   <polygon class="fil5" points="1350.77,5528.16 1387,5526.87 1387.3,5176.05 1346.71,5174.08 "/>
   <path class="fil7" d="M2302.52 3290.91c73.87,-2.3 81.92,-106.38 12.73,-108.41l-73.09 -9.13 0.09 121.71 60.27 -4.17z"/>
   <path class="fil7" d="M2686.15 3359.72l118.33 1.28c-9.85,-41.06 -43.59,-158.98 -61.83,-183.36l-56.5 182.08z"/>
   <path class="fil7" d="M1951.79 4023c-8.45,54.15 -1.36,89.47 67.34,77.51 51.54,-8.98 59.06,-50.39 59.31,-103.72 -55.89,3.57 -88.6,5.35 -126.66,26.21z"/>
   <path class="fil7" d="M2317.33 5492.08c83.33,24.03 125.61,-3.51 122.02,-89.98 -75.61,-11.65 -150.7,3.26 -122.02,89.98z"/>
   <path class="fil7" d="M1487.38 4872.2l2.23 -41.81 -71.23 1.76c-54.47,8 -62.79,36.1 -47.88,86.8 50.66,17.73 109.88,12.58 116.87,-46.75z"/>
   <path class="fil8" d="M1180.75 3477.05l-0.56 75.6 -263.23 -0.21 0.36 -449.68 -0.24 -10.65 263.31 -0.11 0.23 78.34c12.47,-22.48 8.56,-51.94 6.05,-80.26 -39.33,-14.79 -233.82,-13.77 -277.39,-0.88l2.39 471.39 274.86 -3.91c1.3,-14.18 2.9,-32.5 2.35,-46.69l-8.12 -32.95z"/>
   <polygon class="fil3" points="1836.38,4122.94 1836.55,3870.76 1803.69,3871.23 1803.02,4122.56 "/>
   <path class="fil9" d="M1729.55 2524.7l91.35 0.45 -0.23 460.1 -91.7 0 0.59 -460.55zm-4.91 468.48l104.48 -1.94 -1.18 -468.71c-33.34,-9.38 -71.49,-8.87 -106.79,-1.15l3.49 471.8z"/>
   <path class="fil10" d="M1654.46 2599.69l-133.09 6.05 -0.5 372.26 -0.05 8.87 -90.55 0.11 -2.76 -382.42 -129.91 -0.16c27.29,16.15 90.98,7.6 123.47,7.6l4.2 380.1c32.27,5.63 70.33,7.61 102.77,-2.08l0.19 -378.03 102.05 -0.03c44.05,-1.21 12.22,1.72 24.18,-12.26z"/>
   <path class="fil10" d="M3134.41 2603.62l-133.63 3.47 0.02 379.92 -91.06 -0.07 -3.32 -382 -128.79 -5.81c19.02,25.47 94.15,12.84 124.22,12.88l2.67 382.54 104.26 -2.95 0.37 -379.59c21.87,0 43.74,-0.12 65.61,0.14 38.97,0.47 38.28,4.3 59.66,-8.52z"/>
   <path class="fil11" d="M727.91 2985.95c7.97,4.72 4.63,6.07 21.97,9.75l113.36 -4.13c7.86,-50.18 2.84,-282.31 2.87,-362.94 0.03,-52.51 9.69,-95.93 -11.9,-106.16l4.07 464.8 -130.36 -1.32z"/>
   <path class="fil12" d="M2119.4 2612.42l133 -4.9 -0.28 -88.16 -348.62 0.96c45.95,21.03 271.25,7.71 340.99,5.65l0.28 72.92 -99.81 0.01c-51.86,3.45 -11.46,-0.62 -25.55,13.52z"/>
   <path class="fil13" d="M2598.48 2842.37c26.94,-13.83 13.37,-113.79 13.37,-147.19 0,-57.19 -0.1,-114.38 0.12,-171.55l90.2 1.05 -0.59 340.26 7.68 -344.28c-33.42,-9.08 -66.19,-8.23 -99.45,-2.4 -20.29,60.3 3.16,240.03 -11.34,324.12z"/>
   <path class="fil14" d="M1020.68 3475.71l-3.38 -116.75 153.67 -1.5c10.47,-30.53 9.91,-54.74 0.69,-86.7l-154.89 -2.08 7.21 -96.88c-26.58,8.92 -19.45,57.97 -12.55,102.03l156.31 5.29 -0.23 71.6 -156.43 1.23 -3.15 100.49c4.08,22.62 -1.27,11.87 12.77,23.27z"/>
   <path class="fil13" d="M649.14 3173.38l173.33 -1.46 0.33 -83.52c-42.43,-12.33 -93.89,-5.77 -138.85,-5.77 -24.91,0 -49.82,0.12 -74.73,-0.15 -7.14,-0.08 -28.05,-0.86 -33.78,-0.22 -51.8,5.85 -10.27,-0.62 -27.06,9.75l267.72 -0.17 -0.08 74.75c-38.17,-0.34 -137.43,-7.7 -166.87,6.79z"/>
   <path class="fil10" d="M3135.01 3476.82l-5.37 -387.52c-22.23,-9.36 -89.15,-19.82 -106.87,2.7l100.94 -0.65 0.78 368.57c5.85,21.37 -2.45,4.55 10.52,16.92z"/>
   <path class="fil15" d="M2121.08 2984.89l-93.59 -0.27 -2.55 -377.14c-38.43,-12.93 -87.18,-6.93 -128.55,-6.05 14.58,9.91 -19.45,9.35 24.43,8.12l98.25 0.08 4.35 382.33c17.74,0.97 37.8,1.88 55.49,1.67l42.17 -8.74z"/>
   <path class="fil6" d="M2354.47 5229c45.64,-2.22 74.56,-42.48 90.65,-80.66l-42.84 2.11c-18.59,19.39 -44.88,54.84 -47.81,78.55z"/>
   <path class="fil13" d="M3024.24 3552.76l33.21 9.1c11.06,0.6 30.08,-0.55 42.14,-0.59 59,-0.25 180.33,6.68 219.67,-5.69 1.13,-13.32 2.86,-32.31 2.27,-45.5 -1.57,-35.05 0.45,-17.73 -8.64,-32.09l0.28 74.74 -288.92 0.03z"/>
   <path class="fil16" d="M1836.38 4122.94l-33.36 -0.38 0.67 -251.33 32.85 -0.47c-13.72,-9.19 4.44,-2.83 -16.08,-7.42 -7.5,-1.68 -13.58,0.15 -20.66,0.65 -11.05,35.4 -11.09,231.47 0.45,266.1 8.07,0.43 11.54,1.63 20.21,0.29 21.32,-3.28 2.23,1.77 15.93,-7.45z"/>
   <path class="fil12" d="M443.61 2982.43c18.21,15.97 51.28,9.81 88.02,9.19 7.71,-30.12 11.88,-233.34 -3.25,-270.19l0.46 260.22 -85.23 0.78z"/>
   <path class="fil17" d="M2034.94 3170.46c14.64,-22.55 10.07,-49.29 7.33,-80.74 -41.49,-8.93 -157.11,-3.73 -212.82,-4.28 -7.89,-0.07 -26.93,-0.9 -33.63,-0.26l-26.73 8.43 265.92 0.07 -0.08 76.77z"/>
   <path class="fil18" d="M2134.06 3554.15c16.5,12.21 -29.98,11.66 27.5,10.33 33.61,0 49.41,4.73 81.37,-7.86l0.78 -176.76 52.12 5.44c-10.82,-7.1 12.13,-6.84 -26.08,-10.34 -12.21,-1.12 -21.5,1.45 -33.02,2.81l-1.12 176.15 -101.56 0.24z"/>
   <path class="fil14" d="M1769.17 3552.26l34.85 8.85c8.42,0.43 24.44,-0.55 33.77,-0.65l204.86 -3.14c3.75,-26.61 9.04,-57.64 -5.49,-81.22l-0.19 76.02 -267.81 0.16z"/>
   <path class="fil12" d="M1382.46 3983.08c-19.58,-12.69 -13.98,-7.36 -42.88,-9.01l-32.84 -6.21c7.93,-19.29 -5.41,-10.01 16.35,-15.92l92.64 0.14 3.01 168.34 2.63 -177.98 -121.97 2.39 2.23 37.52 80.82 0.72z"/>
   <path class="fil19" d="M650.84 3377.87c48.33,1.17 117.47,8.42 161.62,-4.92 4.63,-27.15 8.6,-56.15 -4.26,-80.56l-0.18 77.01 -132.38 -0.07c-43.41,-0.42 -12.71,-1.07 -24.81,8.54z"/>
   <path class="fil6" d="M1838.23 3767.87c-106.56,-10.82 12.55,117.68 0,0z"/>
   <path class="fil10" d="M2302.52 3290.91l-60.27 4.17 -0.09 -121.71 73.09 9.13c-7.63,-19.84 -56.39,-14.67 -78.26,-12.26l-1.29 129.96 42.05 2.56c42.62,-5.56 12.72,-2.33 24.77,-11.84z"/>
   <path class="fil9" d="M1514.25 5649.57c1.09,-1.85 2.73,-4.15 3.22,-5.57l5.13 -103.98c-0.12,-54.52 1.8,-23.07 10.96,-33.14 -15.81,-13.01 20.16,-12.03 -19.39,-10.72l0.08 153.41z"/>
   <path class="fil8" d="M2860.41 3548.06c12.64,13.63 -19.23,9.61 23.35,13.21l90.91 -2.7 -8.89 -12.96c-23.21,12.81 -73.91,8.87 -105.37,2.44z"/>
   <path class="fil20" d="M1487.38 4872.2c15.53,-19.01 11.23,-13.35 7.67,-45.14 -29.88,-5.09 -49.7,-6.93 -76.67,5.08l71.23 -1.76 -2.23 41.81z"/>
   <path class="fil18" d="M1663.63 4714.82l-17.45 -11.98 2.84 21.6c29.94,7.24 2.54,3.33 14.61,-9.62z"/>
   <path class="fil18" d="M1531.27 5286.7l-18.16 -8.88 2.57 20.36c27.92,0.09 2.53,2.21 15.59,-11.48z"/>
   <polygon class="fil18" points="2129.49,4713.25 2109.79,4708.71 2116.36,4727.61 "/>
   <polygon class="fil20" points="2087.47,4107.73 2081.42,4092.18 2069.04,4103.64 "/>
   <g style="clip-path:url(#id0)">
    <image x="4135.8" y="252.33" width="5732.69" height="5359.22" xlink:href="q3wd3ewsdqsd_Images\q3wd3ewsdqsd_ImgID1.png"/>
   </g>
   <path class="fil21" d="M4329.95 4986.82c50.53,-23.08 89.06,-50.99 116.05,-84.22 27,-33.22 40.61,-69.22 40.61,-107.97 0,-48.23 -9.23,-83.76 -27.68,-106.14 -18.46,-22.61 -47.07,-33.92 -85.83,-33.92 -34.61,0 -61.37,10.39 -80.06,31.38 -18.69,20.99 -27.92,51.23 -27.92,90.44 0,27.46 5.31,58.83 16.15,93.67 10.84,35.07 27,73.83 48.68,116.75zm149.28 501.35c-45.45,-51.45 -88.14,-107.97 -128.05,-170.28 -39.92,-62.06 -80.52,-135.43 -122.05,-220.11 -39.92,19.38 -70.37,43.38 -91.61,71.99 -20.98,28.38 -31.6,60.22 -31.6,95.53 0,72.44 23.08,137.04 69.44,194.02 46.38,56.99 98.29,85.38 155.97,85.38 28.38,0 54.91,-4.85 79.6,-14.55 24.93,-9.68 47.53,-23.52 68.3,-41.98zm421.3 -112.37l56.76 13.62c-17.53,85.59 -44.99,147.89 -82.14,186.88 -37.13,38.99 -87.67,58.38 -151.81,58.38 -36,0 -70.83,-8.54 -104.75,-25.38 -33.68,-16.84 -64.83,-41.3 -93.21,-73.37 -43.38,35.77 -86.75,62.29 -130.83,79.61 -43.84,17.3 -89.28,26.07 -136.11,26.07 -85.84,0 -156.9,-26.76 -212.73,-80.06 -55.83,-53.3 -83.75,-120.44 -83.75,-200.97 0,-68.52 19.61,-128.28 58.61,-179.04 39.22,-50.99 100.36,-96.44 183.65,-136.59 -21.22,-37.84 -37.15,-75.68 -47.76,-113.51 -10.6,-37.84 -15.92,-75.22 -15.92,-112.13 0,-67.14 22.15,-122.29 66.68,-165.2 44.52,-43.15 101.52,-64.6 171.66,-64.6 65.29,0 118.13,17.99 158.27,53.76 40.15,35.76 60.22,82.6 60.22,140.27 0,54.92 -18.46,101.99 -55.15,141.21 -36.91,39.22 -99.2,77.06 -187.34,113.52 6,9.91 14.76,24.69 26.53,44.52 84.91,146.28 152.27,247.56 202.35,303.86 31.6,-39.68 56.29,-77.98 74.06,-115.36 17.76,-37.38 26.75,-68.52 26.75,-93.21 0,-22.85 -10.6,-40.38 -31.6,-52.61 -20.99,-12.22 -51.45,-18.23 -91.6,-18.23l-17.76 0 0 -59.52 380.69 0 0 59.52c-36,0 -64.37,4.85 -85.14,14.76 -20.77,9.92 -38.99,26.77 -54.68,50.77 -1.85,2.77 -19.15,35.3 -52.14,97.83 -32.77,62.52 -68.99,117.9 -108.68,166.12 29.77,31.15 57,53.99 81.68,68.29 24.91,14.54 48.91,21.69 72.45,21.69 29.06,0 53.98,-12.46 74.52,-37.61 20.53,-24.92 36.45,-62.76 48.22,-113.29z"/>
  </g>
 </g>
</svg>
