<?xml version="1.0" encoding="UTF-8"?>
<!DOCTYPE svg PUBLIC "-//W3C//DTD SVG 1.1//EN" "http://www.w3.org/Graphics/SVG/1.1/DTD/svg11.dtd">
<!-- Creator: CorelDRAW 2020 (64 Bit) -->
<svg xmlns="http://www.w3.org/2000/svg" xml:space="preserve" width="1576.44mm" height="694.157mm" version="1.1" style="shape-rendering:geometricPrecision; text-rendering:geometricPrecision; image-rendering:optimizeQuality; fill-rule:evenodd; clip-rule:evenodd"
viewBox="0 0 94323.96 41533.88"
 xmlns:xlink="http://www.w3.org/1999/xlink"
 xmlns:xodm="http://www.corel.com/coreldraw/odm/2003">
 <defs>
  <style type="text/css">
   <![CDATA[
    .str0 {stroke:#373435;stroke-width:11.97;stroke-miterlimit:22.9256}
    .fil5 {fill:none}
    .fil0 {fill:none;fill-rule:nonzero}
    .fil1 {fill:#FEFEFE}
    .fil3 {fill:#E6E7E8}
    .fil2 {fill:#00A357}
    .fil6 {fill:#00A85A;fill-rule:nonzero}
    .fil4 {fill:#04955B;fill-opacity:0.211765}
   ]]>
  </style>
   <clipPath id="id0">
    <path d="M25881.48 2382.33c10086.14,0 18262.56,7705.46 18262.56,17210.64 0,9505.18 -8176.42,17210.64 -18262.56,17210.64 -10086.15,0 -18262.57,-7705.46 -18262.57,-17210.64 0,-9505.18 8176.42,-17210.64 18262.57,-17210.64z"/>
   </clipPath>
 </defs>
 <g id="Camada_x0020_1">
  <metadata id="CorelCorpID_0Corel-Layer"/>
  <rect class="fil0" x="-0" width="94323.96" height="41533.87"/>
  <ellipse class="fil1 str0" cx="26215.06" cy="19459.58" rx="17208.72" ry="16886.35"/>
  <path class="fil2 str0" d="M18096.92 13369.09c142.7,18.61 1074.25,584.08 1269.57,692.39l2498.44 1442.02c240.11,143.04 1037.04,636.93 1296.13,686.58l387.55 -633.28c353.9,-568.1 770.42,-1338.85 1118.6,-1943.18 250.81,-435.32 491.76,-866.1 744.56,-1296.91 126.19,-215.1 247.84,-430.67 377.87,-643.02 135.08,-220.59 275.46,-430.86 404.91,-637.89 169.45,113.29 1602.23,2561.95 1636.32,2794.59 -386.7,175.7 -2363.75,1263.83 -2484.5,1451.45 324.94,200.26 6228.66,126.64 7090.02,117.64 113.66,-340.58 577.94,-1115.34 771.28,-1458.4 529.02,-938.57 1120.25,-1906.76 1661.55,-2849.57 139.68,-243.3 268.87,-468.51 407.17,-708.4 88.03,-152.71 332.03,-644.25 400.75,-724.82 44.8,-144.22 154.31,-274.17 173.01,-422.39 -643.38,306.16 -2111.14,1316.11 -2582.83,1436.89l-181.25 -218.76c-269.51,-369.21 -881.52,-1491.15 -1097.85,-1892.8 -265.03,-492.01 -1013.94,-1855.73 -1316.23,-2102.06 -641.02,-522.38 -2108.08,-339.1 -3030.48,-337.28 -1139.34,2.27 -2278.83,-1.45 -3418.21,0.03 -3216.48,4.21 -3121.21,121.31 -4433.09,2400.45 -373.39,648.71 -2395.66,3903.32 -2465.49,4352.94 103.09,81.36 256.39,174.83 373.5,243.8 106.68,62.86 330.16,160.59 398.71,249.97z"/>
  <path class="fil2 str0" d="M18112.42 31287.61c220.76,-30.08 474.04,95.38 763.6,98.55 1157.26,12.65 5302.14,87.53 6103.23,-63.89l4.18 -6689.95c-8.92,-2.44 -17.36,-11.78 -20.02,-6.76l-3024.32 -40.71c-382.28,-0.42 -2938.17,32.1 -3066.57,-21.28 76.06,-355.61 573.01,-1126 759.22,-1431.43 141.56,-232.2 271.12,-447.04 410.29,-682.07l382.13 -679.49c375.41,109.45 1677.47,846.39 1752.42,961.76 143.83,56.72 315.05,172.56 459.69,253.31 128.41,71.66 320.51,186.47 461.59,221.74l-3510.25 -6150.19 -1834.17 17.53 -5276.62 68.89c69.53,78.92 1678.62,990.33 1923.61,1140.88l636.85 389.71c-111.81,378.6 -1628.16,2844.67 -1869.08,3264.37 -729.65,1271.2 -667.26,1536.14 67.46,2757.22 789,1311.29 1608.2,2665.11 2352.79,4008.4 551.05,994.11 985.31,2075.34 2038.03,2448.03 125.99,44.61 399.49,71.85 485.96,135.39z"/>
  <path class="fil2 str0" d="M31384.74 18780.07c-84.28,104.85 -289.82,168.92 -420.8,221.15 163.43,693.82 2843.43,4771.19 2995.58,5331.19 -411.43,-0.25 -3084.43,36.08 -3247.63,-21.17l-10.69 -2936.45c-172.92,135.58 -1019.18,1574.78 -1197.1,1870.2 -135.95,225.69 -1065.28,1843 -1144.14,1897.56 -14.04,119.88 -384.32,697.99 -446.48,808.18 -79.15,140.3 -156.45,266.21 -234.58,406.14 -67.18,120.28 -144.83,313.5 -241.98,384.72 -11.22,87.81 -206.32,404.2 -266.74,507.57 -73.85,126.42 -98.58,131.02 -34.93,278.79 365.09,847.6 1630.01,2682.11 1860.75,3200.84 81.36,84.22 323.71,553.61 412.08,699.09 381.38,627.65 751.74,1308.27 1175.4,1910.71 117.81,167.49 98.18,112.62 111.05,89.33l39.2 -2887.7 161.63 -36.92c69.02,-6.9 138.19,-12.62 207.44,-17.41 865.99,-59.8 1930.03,-4.85 2800.59,6.31 732.76,9.39 1628.78,110.6 2163.51,-280.81 365.09,-267.27 755.75,-1032.45 992.6,-1451.95 578.79,-1025.1 1206.47,-2042.73 1791.81,-3074.53 321.49,-566.67 917.69,-1564.35 1178.46,-2098.39 524.48,-1074.11 427,-1460.28 -54.45,-2488.09 -514.89,-1099.17 -1762.76,-2895.08 -2378.56,-4122.9 -149.69,-282.22 -615.73,-1122.41 -797.38,-1247.51 -329.71,126.67 -1053.84,560 -1387.07,749.36 -620.08,352.39 -3840.55,2281.15 -4027.57,2302.72z"/>
  <path class="fil3" d="M25881.48 2382.33c10086.14,0 18262.56,7705.46 18262.56,17210.64 0,9505.18 -8176.42,17210.64 -18262.56,17210.64 -10086.15,0 -18262.57,-7705.46 -18262.57,-17210.64 0,-9505.18 8176.42,-17210.64 18262.57,-17210.64z"/>
  <g style="clip-path:url(#id0)">
   <g id="_3278659735632">
    <g>
     <path id="1" class="fil4" d="M12472.14 22352.63c274.31,190.58 607.39,338.22 916.78,508.22l1831.9 1000.66c234.92,132.82 722.23,415.07 951.62,497.06 202.05,-216.65 1608.91,-2689.57 1945.42,-3116.76 91.98,71.08 985.69,1518.78 1039.13,1682.67 -338.93,177.62 -1349.26,675.92 -1596.83,885.43 316.36,116.4 3841.13,63.41 4514.83,69.29 201.54,-515.19 2071.73,-3336.15 2179.19,-3725.88 -517.76,255.63 -1124.82,662.37 -1646.91,877.81 -182.09,-161.23 -638.12,-987.53 -802.21,-1261.02 -169.37,-282.29 -652.54,-1130.19 -837.14,-1278.65 -401.18,-322.68 -1264.58,-211.7 -1902.3,-211.7 -731.61,0 -1463.21,0 -2194.83,0 -2042.6,0 -1976.79,55.03 -2812.84,1422.52 -248.26,406.04 -1537.79,2398.43 -1585.81,2650.34z"/>
     <path class="fil4" d="M20388.03 25338.39c158.66,482.1 1799.37,2882.55 1910.96,3215.23l-2067.71 -1.47 -5.86 -1792.26c-201.69,174.11 -2290.43,3610.85 -2292.65,3638.56 -11.34,140.7 959.69,1600.95 1110.63,1847.28 107.16,174.88 1007.46,1677.07 1176.56,1823.99l8.79 -1777.53c532.75,-77.26 1595.66,-19.98 2178.99,-19.86 934.14,0.19 1190.18,54.01 1593.65,-614.26 544.9,-902.55 1098.94,-1777.37 1640.63,-2685.07 1068.42,-1790.38 1075.54,-1446.37 -709.74,-4298.43 -187.16,-299.01 -611.54,-1097.75 -828.53,-1315.58 -489.23,187.48 -3338.9,1868.94 -3715.73,1979.41z"/>
     <path class="fil4" d="M13347.95 32653.34l4162.03 5.57 -19.99 -4050.71 -3820.85 -6.65c65.24,-299.05 804.96,-1304.5 985.52,-1697.67 496.4,144.05 1189.23,671.13 1713.28,878.52l-2240.78 -3723.06 -4532.89 56.44 1647.13 916.39c-96.45,261.46 -449.14,773.82 -607.14,1033.21 -1175.69,1930.19 -1202.07,1546.48 -196.54,3147.51 402.51,640.9 800.72,1294.34 1203.74,1968.62 427.48,715.19 678.9,1407.55 1706.49,1471.83z"/>
     <path class="fil4" d="M13347.95 32653.34c164.29,69.33 330.53,53.22 529.92,54.27 671.32,3.53 3444.54,48.73 3679.29,-39.38l-0.1 -3922.34c-4.85,-234.89 12.16,-64.49 -67.08,-137.69l19.99 4050.71 -4162.03 -5.57z"/>
    </g>
    <path class="fil1" d="M13928.8 37322.94c-304.8,388.7 -272.59,256.78 -452.7,719.43 -2815.35,4960.06 -4591.03,8933.87 -5553.16,12003.83 2971.56,-3732.94 9978.93,-7027.36 10128.45,-7285.24 414.49,-824.96 2614.47,632.08 3450.61,1175.17 853.07,1263.77 1794.3,-3496.23 2393.04,-2558.53 660.86,-100.2 1077.67,-1114.45 1681.84,-2288.47 488.46,-949.29 735.47,-2007.21 1497.98,-2321.65 986.93,744.79 553.08,3583.96 2642.15,3437.81 904.46,-63.32 1361.79,-470.76 1919.35,-955.24 2026.3,-1760.77 2099.54,-2691.81 3401.52,-2469.05 1318.9,225.67 1452.81,1167.02 2391.33,2253.62 333.14,385.69 360.74,457.02 665.88,841.91 469.33,591.98 817.69,1298.68 1393.41,1591.91 2779.61,3099.96 1823.43,1506.47 4568.58,5027.47 -2382.73,-203.37 -4752.58,-429.08 -7138.37,-628.83 -2206.15,-184.67 -4525.71,9.42 -6737.47,51.03 -4045.37,375.21 -7642.55,693.39 -11595,1406.11 -1875.72,338.24 -3645.79,741.8 -5490.24,1206.68l-5173.06 1515.28c1392.45,-120.87 3745.54,-818.5 5403.81,-1156.56 1924.9,-392.38 3849.84,-684.17 5808.21,-945.57 3982.01,-531.6 8045.95,-810.09 12157.97,-851.81 4437.21,-45.08 8793.93,241.87 13194.43,990.59 2333.91,397.06 7450.42,1954.28 8173.37,2688.04 -348.85,-2545.13 -4734.66,-3415.32 -7811.37,-6867.87 -403.79,-453.08 -811.92,-753.72 -1124.54,-1273.53 -276.48,-459.73 -120.69,-330.91 -460.36,-740.91l-2603.56 -3420.75c-1168.58,-1568.6 -3052.81,-4663.31 -4067.53,-5723.36 -2801.51,-2926.54 -4940.17,-763.28 -6938.49,-2102.32 -403.12,-270.14 -867.71,-788.31 -1265.55,-1130.25 -2971.2,-2553.5 -4993.01,-2509.21 -7863.97,-126.52l-5429.89 6543.11c-240.91,296.38 -324.32,304.06 -552.28,628.47 -303.48,431.91 -120.36,418.04 -614.39,765.99z"/>
   </g>
  </g>
  <path class="fil5" d="M25881.48 2382.33c10086.14,0 18262.56,7705.46 18262.56,17210.64 0,9505.18 -8176.42,17210.64 -18262.56,17210.64 -10086.15,0 -18262.57,-7705.46 -18262.57,-17210.64 0,-9505.18 8176.42,-17210.64 18262.57,-17210.64z"/>
  <path class="fil6" d="M13629.59 21635.03l0 -7095.25 1439.7 0 0 5949.79 3186.21 0 0 1145.47 -4625.91 0zm6217.04 -6005.38l0 -1089.87 4767.54 0 0 1089.87 -1663.92 0 0 4904.4 1663.92 0 0 1100.98 -4767.54 0 0 -1100.98 1663.92 0 0 -4904.4 -1663.92 0zm10274.56 6005.38l-1453.46 -2611.6 -1427.87 2611.6 -1711.13 0 2309.02 -3642.16 -2163.48 -3453.09 1665.9 0 1357.06 2467.03 1329.6 -2467.03 1665.85 0 -2143.79 3417.88 2375.88 3677.37 -1803.57 0zm8118.94 -3580.97c0,645.02 -80.61,1201.06 -239.91,1668.16 -159.34,465.24 -377.63,848.91 -656.92,1151.02 -279.3,300.29 -605.76,522.69 -979.48,667.26 -375.65,144.57 -774.9,216.85 -1201.72,216.85 -993.24,0 -1738.64,-309.52 -2238.2,-930.47 -499.56,-620.91 -749.37,-1523.59 -749.37,-2706.13 0,-645.02 80.66,-1201.06 239.96,-1668.16 159.34,-467.06 377.63,-848.91 656.92,-1151.02 279.3,-300.29 605.76,-522.69 979.48,-667.26 375.65,-144.58 776.88,-216.86 1201.72,-216.86 993.24,0 1738.65,309.52 2238.21,928.61 499.56,619.09 749.32,1521.73 749.32,2708zm-1498.69 66.69c0,-841.5 -119.96,-1469.82 -357.94,-1883.15 -237.98,-413.33 -629.41,-619.09 -1176.18,-619.09 -273.37,0 -505.46,53.77 -698.2,161.27 -192.75,105.67 -350.07,263.21 -475.96,468.92 -123.92,207.62 -216.35,461.56 -273.41,765.53 -57.01,302.11 -86.5,648.75 -86.5,1039.83 0,841.49 119.95,1469.82 359.91,1883.15 239.96,413.33 631.35,619.09 1174.16,619.09 273.41,0 507.48,-53.77 700.18,-161.26 194.73,-105.68 354.02,-263.21 476.01,-468.93 123.91,-207.62 214.37,-461.55 271.38,-765.52 57.06,-302.11 86.56,-648.7 86.56,-1039.83z"/>
  <path class="fil6" d="M29410.43 23120.84l-1679.56 2374.68 1710.47 0 0 393.08 -2270.91 0 0 -312.19 1689.03 -2400.56 -1642.67 0 0 -383.37 2193.63 0 0 328.35zm2687.17 2767.76l-1869.25 0 0 -3096.11 1869.25 0 0 354.24 -1421.23 0 0 960.89 1366.29 0 0 354.23 -1366.29 0 0 1067.63 1421.23 0 0 359.11zm3099.1 0l-505.5 0 -488.35 -989.97c-36.89,-76.02 -74.63,-138.31 -113.26,-188.44 -38.63,-49.37 -79.81,-88.98 -124.43,-118.11 -44.67,-29.13 -93.57,-50.13 -145.92,-63.09 -53.2,-12.12 -112.42,-18.6 -177.68,-18.6l-211.12 0 0 1378.22 -448.02 0 0 -3096.11 880.58 0c191.38,0 355.3,19.4 492.64,59.06 137.29,39.6 250.6,94.62 338.14,165.79 88.39,71.18 152.75,156.92 193.97,257.18 41.18,100.3 61.77,211.13 61.77,333.23 0,96.26 -15.46,187.64 -45.47,273.38 -30.06,85.74 -74.68,164.2 -134.75,234.57 -59.22,70.38 -133.06,131.03 -220.59,182.8 -88.39,50.92 -189.64,88.94 -302.96,114.82 91.83,29.93 169.95,82.5 234.31,156.91 65.25,75.22 130.46,174.72 198.26,299.27l518.36 1019.1zm-715.78 -2246.89c0,-165.79 -54.89,-289.54 -164.76,-372.04 -109.87,-81.7 -264.36,-122.95 -463.48,-122.95l-422.25 0 0 1023.99 362.18 0c105.58,0 200,-11.33 284.95,-34.81 84.95,-22.65 157.03,-56.61 216.26,-101.9 59.22,-44.49 105.59,-100.3 138.19,-165.79 32.6,-65.54 48.9,-140.75 48.9,-226.49zm3598.62 678.58c0,278.27 -35.19,518.48 -104.69,720.68 -69.54,202.2 -163.06,369.6 -281.51,501.46 -117.55,131.83 -255.74,229.69 -414.52,293.59 -157.93,63.9 -325.28,96.26 -501.21,96.26 -211.12,0 -395.67,-35.61 -551.86,-107.58 -157.04,-71.97 -286.65,-176.32 -389.65,-312.19 -102.99,-135.91 -180.21,-300.91 -230.01,-496.63 -50.6,-194.92 -75.53,-414.93 -75.53,-659.98 0,-274.98 34.34,-513.59 102.99,-715.79 68.65,-202.21 162.22,-369.64 280.67,-501.47 117.55,-131.83 255.74,-229.69 413.67,-293.58 157.04,-63.9 323.54,-96.27 499.47,-96.27 211.12,0 395.67,36.41 551.86,109.18 157.08,72.82 287.5,176.32 391.39,311.39 103.84,135.07 181.06,300.07 232.56,494.19 50.65,194.92 76.37,413.33 76.37,656.74zm-447.97 29.93c0,-181.95 -14.61,-348.6 -44.67,-499.03 -30.01,-151.23 -78.92,-280.66 -145.02,-389.84 -66.95,-109.18 -152.75,-193.28 -258.33,-253.93 -105.59,-59.85 -232.61,-89.78 -381.07,-89.78 -143.33,0 -267.76,32.32 -370.75,96.22 -103.84,63.9 -188.83,150.43 -255.74,260.46 -66.1,109.98 -115.9,238.57 -148.51,386.6 -32.6,147.19 -48.9,304.1 -48.9,469.9 0,183.6 15.45,350.24 46.36,501.47 30.86,151.23 78.92,280.66 145.02,389.04 66.1,107.59 151.06,191.68 254.9,252.34 104.69,59.85 230.86,89.78 377.63,89.78 144.17,0 267.76,-32.33 372.49,-96.22 103.84,-63.9 190.53,-150.48 257.48,-260.46 67.8,-109.98 117.55,-237.77 150.16,-385 32.65,-147.19 48.96,-304.1 48.96,-471.54z"/>
 </g>
</svg>
